<?xml version="1.0" encoding="UTF-8" standalone="no"?>
<!-- Created with Inkscape (http://www.inkscape.org/) -->

<svg
   xmlns:dc="http://purl.org/dc/elements/1.1/"
   xmlns:cc="http://creativecommons.org/ns#"
   xmlns:rdf="http://www.w3.org/1999/02/22-rdf-syntax-ns#"
   xmlns:svg="http://www.w3.org/2000/svg"
   xmlns="http://www.w3.org/2000/svg"
   xmlns:sodipodi="http://sodipodi.sourceforge.net/DTD/sodipodi-0.dtd"
   xmlns:inkscape="http://www.inkscape.org/namespaces/inkscape"
   width="400"
   height="210"
   viewBox="0 0 400 210"
   id="svg2"
   version="1.1"
   inkscape:version="0.91 r13725"
   inkscape:export-filename="C:\blogs\codenotfound\code\code-not-found\assets\images\teaser\apache-kafka-teaser_export.png"
   inkscape:export-xdpi="90"
   inkscape:export-ydpi="90"
   sodipodi:docname="apache-kafka-teaser.svg">
  <defs
     id="defs4">
    <clipPath
       clipPathUnits="userSpaceOnUse"
       id="clipPath4556">
      <rect
         id="rect4558"
         x="-139.72592"
         y="64.556274"
         style="fill:#ff0000;stroke-width:1.32300782"
         height="120"
         width="120"
         transform="matrix(0.70711825,0.70709532,-0.70709532,0.70711825,0,0)" />
    </clipPath>
    <clipPath
       clipPathUnits="userSpaceOnUse"
       id="clipPath4556-6">
      <rect
         id="rect4558-1"
         x="-139.72592"
         y="64.556274"
         style="fill:#ff0000;stroke-width:1.32300782"
         height="120"
         width="120"
         transform="matrix(0.70711825,0.70709532,-0.70709532,0.70711825,0,0)" />
    </clipPath>
    <clipPath
       clipPathUnits="userSpaceOnUse"
       id="clipPath4556-7">
      <rect
         id="rect4558-9"
         x="-139.72592"
         y="64.556274"
         style="fill:#ff0000;stroke-width:1.32300782"
         height="120"
         width="120"
         transform="matrix(0.70711825,0.70709532,-0.70709532,0.70711825,0,0)" />
    </clipPath>
    <clipPath
       clipPathUnits="userSpaceOnUse"
       id="clipPath4556-6-6">
      <rect
         id="rect4558-1-3"
         x="-139.72592"
         y="64.556274"
         style="fill:#ff0000;stroke-width:1.32300782"
         height="120"
         width="120"
         transform="matrix(0.70711825,0.70709532,-0.70709532,0.70711825,0,0)" />
    </clipPath>
    <pattern
       y="0"
       x="0"
       height="6"
       width="6"
       patternUnits="userSpaceOnUse"
       id="EMFhbasepattern" />
  </defs>
  <sodipodi:namedview
     id="base"
     pagecolor="#ffffff"
     bordercolor="#666666"
     borderopacity="1.0"
     inkscape:pageopacity="1"
     inkscape:pageshadow="2"
     inkscape:zoom="1.979899"
     inkscape:cx="190.61117"
     inkscape:cy="100.39167"
     inkscape:document-units="px"
     inkscape:current-layer="layer1"
     showgrid="false"
     units="px"
     showguides="true"
     inkscape:guide-bbox="true"
     inkscape:window-width="1920"
     inkscape:window-height="1018"
     inkscape:window-x="1272"
     inkscape:window-y="-8"
     inkscape:window-maximized="1">
    <sodipodi:guide
       position="300,175"
       orientation="1,0"
       id="guide3374" />
    <sodipodi:guide
       position="-52.5,104.64286"
       orientation="0,1"
       id="guide3376" />
    <sodipodi:guide
       position="200,145"
       orientation="1,0"
       id="guide3378" />
    <sodipodi:guide
       position="470,529.28571"
       orientation="1,0"
       id="guide3380" />
    <sodipodi:guide
       position="100,198.21429"
       orientation="1,0"
       id="guide4152" />
    <sodipodi:guide
       position="-40.714286,200"
       orientation="0,1"
       id="guide4154" />
    <sodipodi:guide
       position="-37.857143,10"
       orientation="0,1"
       id="guide4156" />
  </sodipodi:namedview>
  <metadata
     id="metadata7">
    <rdf:RDF>
      <cc:Work
         rdf:about="">
        <dc:format>image/svg+xml</dc:format>
        <dc:type
           rdf:resource="http://purl.org/dc/dcmitype/StillImage" />
        <dc:title></dc:title>
      </cc:Work>
    </rdf:RDF>
  </metadata>
  <g
     inkscape:label="Laag 1"
     inkscape:groupmode="layer"
     id="layer1"
     transform="translate(0,-842.36222)">
    <g
       id="g4326"
       transform="translate(3.41452,0)">
      <path
         style="fill:#000000;fill-opacity:1;fill-rule:nonzero;stroke:none"
         d="m 194.74154,879.90438 c 0,14.1676 -11.46133,25.62893 -25.62884,25.62893 -14.16744,0 -25.62877,-11.46133 -25.62877,-25.62893 0,-14.16723 11.46133,-25.62855 25.62877,-25.62855 14.16751,0 25.62884,11.46132 25.62884,25.62855 z"
         id="path4167"
         inkscape:connector-curvature="0" />
      <path
         style="fill:#000000;fill-opacity:1;fill-rule:nonzero;stroke:none"
         d="m 163.38665,901.25285 11.54956,0 0,20.73784 -11.54956,0 z"
         id="path4169"
         inkscape:connector-curvature="0" />
      <path
         style="fill:#ffffff;fill-opacity:1;fill-rule:nonzero;stroke:none"
         d="m 180.82842,879.7684 c 0,6.44047 -5.25865,11.69903 -11.7581,11.69903 -6.44039,0 -11.69904,-5.25856 -11.69904,-11.69903 0,-6.49938 5.25865,-11.75794 11.69904,-11.75794 6.49945,0 11.7581,5.25856 11.7581,11.75794 z"
         id="path4171"
         inkscape:connector-curvature="0" />
      <path
         style="fill:#000000;fill-opacity:1;fill-rule:nonzero;stroke:none"
         d="m 255.45024,912.89774 c 0,14.1676 -11.46133,25.62893 -25.62884,25.62893 -14.16744,0 -25.62877,-11.46133 -25.62877,-25.62893 0,-14.16723 11.46133,-25.62855 25.62877,-25.62855 14.16751,0 25.62884,11.46132 25.62884,25.62855 z"
         id="path4167-1"
         inkscape:connector-curvature="0" />
      <path
         style="fill:#ffffff;fill-opacity:1;fill-rule:nonzero;stroke:none"
         d="m 241.53712,912.76176 c 0,6.44047 -5.25865,11.69903 -11.7581,11.69903 -6.44039,0 -11.69904,-5.25856 -11.69904,-11.69903 0,-6.49938 5.25865,-11.75794 11.69904,-11.75794 6.49945,0 11.7581,5.25856 11.7581,11.75794 z"
         id="path4171-2"
         inkscape:connector-curvature="0" />
      <path
         style="fill:#000000;fill-opacity:1;fill-rule:nonzero;stroke:none"
         d="m 255.27166,981.46917 c 0,14.1676 -11.46133,25.62893 -25.62884,25.62893 -14.16744,0 -25.62877,-11.46133 -25.62877,-25.62893 0,-14.16723 11.46133,-25.62855 25.62877,-25.62855 14.16751,0 25.62884,11.46132 25.62884,25.62855 z"
         id="path4167-3"
         inkscape:connector-curvature="0" />
      <path
         style="fill:#ffffff;fill-opacity:1;fill-rule:nonzero;stroke:none"
         d="m 241.35854,981.33319 c 0,6.44047 -5.25865,11.69903 -11.7581,11.69903 -6.44039,0 -11.69904,-5.25856 -11.69904,-11.69903 0,-6.49938 5.25865,-11.75794 11.69904,-11.75794 6.49945,0 11.7581,5.25856 11.7581,11.75794 z"
         id="path4171-1"
         inkscape:connector-curvature="0" />
      <path
         style="fill:#000000;fill-opacity:1;fill-rule:nonzero;stroke:none"
         d="m 194.73594,1014.862 c 0,14.1676 -11.46133,25.629 -25.62884,25.629 -14.16744,0 -25.62877,-11.4614 -25.62877,-25.629 0,-14.1672 11.46133,-25.62852 25.62877,-25.62852 14.16751,0 25.62884,11.46132 25.62884,25.62852 z"
         id="path4167-3-8"
         inkscape:connector-curvature="0" />
      <path
         style="fill:#ffffff;fill-opacity:1;fill-rule:nonzero;stroke:none"
         d="m 180.82282,1014.7261 c 0,6.4404 -5.25865,11.699 -11.7581,11.699 -6.44039,0 -11.69904,-5.2586 -11.69904,-11.699 0,-6.4994 5.25865,-11.758 11.69904,-11.758 6.49945,0 11.7581,5.2586 11.7581,11.758 z"
         id="path4171-1-2"
         inkscape:connector-curvature="0" />
      <path
         style="fill:#000000;fill-opacity:1;fill-rule:nonzero;stroke:none"
         d="m 163.33237,972.35045 11.54956,0 0,20.73784 -11.54956,0 z"
         id="path4169-0"
         inkscape:connector-curvature="0" />
      <path
         style="fill:#000000;fill-opacity:1;fill-rule:nonzero;stroke:none"
         d="m 202.23594,947.36191 c 0,17.86945 -14.45599,32.32554 -32.32527,32.32554 -17.86918,0 -32.32519,-14.45609 -32.32519,-32.32554 0,-17.86888 14.45601,-32.32487 32.32519,-32.32487 17.86928,0 32.32527,14.45599 32.32527,32.32487 z"
         id="path4167-3-8-4"
         inkscape:connector-curvature="0" />
      <path
         style="fill:#ffffff;fill-opacity:1;fill-rule:nonzero;stroke:none"
         d="m 189.04999,947.40971 c 0,10.36269 -8.46123,18.82384 -18.91894,18.82384 -10.36268,0 -18.82391,-8.46115 -18.82391,-18.82384 0,-10.45763 8.46123,-18.91878 18.82391,-18.91878 10.45771,0 18.91894,8.46115 18.91894,18.91878 z"
         id="path4171-1-2-4"
         inkscape:connector-curvature="0" />
      <path
         style="fill:#000000;fill-opacity:1;fill-rule:nonzero;stroke:none"
         d="m 208.51963,917.84628 6.02441,10.30705 -18.42081,10.86768 -6.0244,-10.30705 z"
         id="path4169-00"
         inkscape:connector-curvature="0" />
      <path
         style="fill:#000000;fill-opacity:1;fill-rule:nonzero;stroke:none"
         d="m 208.6982,976.69959 6.02441,-10.30705 -18.42081,-10.86768 -6.0244,10.30705 z"
         id="path4169-00-5"
         inkscape:connector-curvature="0" />
    </g>
  </g>
</svg>
