<?xml version="1.0" encoding="UTF-8" standalone="no"?>
<!-- Created with Inkscape (http://www.inkscape.org/) -->

<svg
   xmlns:dc="http://purl.org/dc/elements/1.1/"
   xmlns:cc="http://creativecommons.org/ns#"
   xmlns:rdf="http://www.w3.org/1999/02/22-rdf-syntax-ns#"
   xmlns:svg="http://www.w3.org/2000/svg"
   xmlns="http://www.w3.org/2000/svg"
   xmlns:sodipodi="http://sodipodi.sourceforge.net/DTD/sodipodi-0.dtd"
   xmlns:inkscape="http://www.inkscape.org/namespaces/inkscape"
   width="400"
   height="210"
   viewBox="0 0 400 210"
   id="svg2"
   version="1.1"
   inkscape:version="0.91 r13725"
   inkscape:export-filename="C:\blogs\codenotfound\code\code-not-found\assets\images\teaser\graphql-teaser.png"
   inkscape:export-xdpi="90"
   inkscape:export-ydpi="90"
   sodipodi:docname="graphql-teaser.svg">
  <defs
     id="defs4">
    <clipPath
       clipPathUnits="userSpaceOnUse"
       id="clipPath4556">
      <rect
         id="rect4558"
         x="-139.72592"
         y="64.556274"
         style="fill:#ff0000;stroke-width:1.32300782"
         height="120"
         width="120"
         transform="matrix(0.70711825,0.70709532,-0.70709532,0.70711825,0,0)" />
    </clipPath>
    <clipPath
       clipPathUnits="userSpaceOnUse"
       id="clipPath4556-6">
      <rect
         id="rect4558-1"
         x="-139.72592"
         y="64.556274"
         style="fill:#ff0000;stroke-width:1.32300782"
         height="120"
         width="120"
         transform="matrix(0.70711825,0.70709532,-0.70709532,0.70711825,0,0)" />
    </clipPath>
    <clipPath
       clipPathUnits="userSpaceOnUse"
       id="clipPath4556-7">
      <rect
         id="rect4558-9"
         x="-139.72592"
         y="64.556274"
         style="fill:#ff0000;stroke-width:1.32300782"
         height="120"
         width="120"
         transform="matrix(0.70711825,0.70709532,-0.70709532,0.70711825,0,0)" />
    </clipPath>
    <clipPath
       clipPathUnits="userSpaceOnUse"
       id="clipPath4556-6-6">
      <rect
         id="rect4558-1-3"
         x="-139.72592"
         y="64.556274"
         style="fill:#ff0000;stroke-width:1.32300782"
         height="120"
         width="120"
         transform="matrix(0.70711825,0.70709532,-0.70709532,0.70711825,0,0)" />
    </clipPath>
    <pattern
       y="0"
       x="0"
       height="6"
       width="6"
       patternUnits="userSpaceOnUse"
       id="EMFhbasepattern" />
  </defs>
  <sodipodi:namedview
     id="base"
     pagecolor="#ffffff"
     bordercolor="#666666"
     borderopacity="1.0"
     inkscape:pageopacity="1"
     inkscape:pageshadow="2"
     inkscape:zoom="2.8"
     inkscape:cx="190.61117"
     inkscape:cy="114.67738"
     inkscape:document-units="px"
     inkscape:current-layer="layer1"
     showgrid="false"
     units="px"
     showguides="true"
     inkscape:guide-bbox="true"
     inkscape:window-width="1920"
     inkscape:window-height="1018"
     inkscape:window-x="1272"
     inkscape:window-y="-8"
     inkscape:window-maximized="1">
    <sodipodi:guide
       position="300,175"
       orientation="1,0"
       id="guide3374" />
    <sodipodi:guide
       position="-52.5,104.64286"
       orientation="0,1"
       id="guide3376" />
    <sodipodi:guide
       position="200,145"
       orientation="1,0"
       id="guide3378" />
    <sodipodi:guide
       position="470,529.28571"
       orientation="1,0"
       id="guide3380" />
    <sodipodi:guide
       position="100,198.21429"
       orientation="1,0"
       id="guide4152" />
    <sodipodi:guide
       position="-40.714286,200"
       orientation="0,1"
       id="guide4154" />
    <sodipodi:guide
       position="-37.857143,10"
       orientation="0,1"
       id="guide4156" />
  </sodipodi:namedview>
  <metadata
     id="metadata7">
    <rdf:RDF>
      <cc:Work
         rdf:about="">
        <dc:format>image/svg+xml</dc:format>
        <dc:type
           rdf:resource="http://purl.org/dc/dcmitype/StillImage" />
        <dc:title />
      </cc:Work>
    </rdf:RDF>
  </metadata>
  <g
     inkscape:label="Laag 1"
     inkscape:groupmode="layer"
     id="layer1"
     transform="translate(0,-842.36222)">
    <g
       transform="matrix(0.96087529,0,0,0.96087529,-13.464758,846.24232)"
       id="g883">
      <g
         style="fill:#e10098"
         id="text4578"
         transform="matrix(0.70967785,0,0,0.70967785,118.57923,255.62866)">
        <path
           id="path5736"
           d="m 86.812,-245.27 q -4.0215,0 -7.328,1.0724 -3.2172,0.98303 -5.6301,3.3066 -2.3235,2.2342 -3.7534,5.8088 -1.3405,3.5747 -1.5192,8.5792 -0.2681,8.043 0,16.086 0.17873,5.0045 1.5192,8.5792 1.4299,3.5746 3.7534,5.8982 2.4129,2.2342 5.6301,3.3066 3.3066,0.98303 7.328,0.98303 3.9321,0 7.328,-1.0724 3.3959,-1.1618 5.8088,-3.3959 2.5023,-2.3235 3.9321,-5.8982 1.4299,-3.5746 1.4299,-8.4004 l 0,-4.5577 -15.55,0 q -1.9661,0 -1.9661,-2.0554 l 0,-1.2511 q 0,-2.0554 1.9661,-2.0554 l 19.124,0 q 2.0554,0 2.0554,2.0554 l 0,7.8642 q 0,5.362 -1.6086,9.8303 -1.6086,4.379 -4.7364,7.5961 -3.0385,3.2172 -7.5961,5.0045 -4.4683,1.698 -10.188,1.698 -5.8088,0 -10.188,-1.698 -4.379,-1.7873 -7.4174,-4.9152 -2.9491,-3.1278 -4.5577,-7.4174 -1.5192,-4.379 -1.698,-9.6516 -0.17873,-4.0215 -0.17873,-8.4898 0,-4.4683 0.17873,-8.4898 0.17873,-5.2726 1.7873,-9.5622 1.6086,-4.379 4.5577,-7.5068 3.0385,-3.1278 7.4174,-4.8258 4.379,-1.7873 10.098,-1.7873 6.1663,0 10.545,1.8767 4.379,1.8767 7.1493,4.4683 2.7704,2.5916 4.1108,5.4514 1.3405,2.8597 1.4299,4.7364 0.0894,0.8043 -0.44684,1.3405 -0.5362,0.44683 -1.4299,0.44683 l -1.9661,0 q -0.8043,0 -1.1618,-0.35747 -0.35747,-0.44683 -0.71493,-1.4299 -0.71493,-2.0554 -2.0554,-4.0215 -1.2511,-2.0554 -3.3959,-3.5746 -2.1448,-1.6086 -5.0939,-2.5916 -2.9491,-0.98303 -6.9706,-0.98303 z"
           inkscape:connector-curvature="0" />
        <path
           id="path5738"
           d="m 129,-227.49 q 3.2172,-6.1663 12.154,-6.1663 l 3.3066,0 q 1.9661,0 1.9661,1.9661 l 0,1.2511 q 0,1.9661 -1.9661,1.9661 l -3.8428,0 q -5.362,0 -8.4898,3.1278 -3.1278,3.1278 -3.1278,8.4898 l 0,27.704 q 0,0.89367 -0.62557,1.4299 -0.5362,0.53619 -1.4299,0.53619 l -1.4299,0 q -1.9661,0 -1.9661,-1.9661 l 0,-42.449 q 0,-0.89366 0.53619,-1.4299 0.5362,-0.62557 1.4299,-0.62557 l 1.4299,0 q 0.89366,0 1.4299,0.62557 0.62557,0.5362 0.62557,1.4299 l 0,4.1108 z"
           inkscape:connector-curvature="0" />
        <path
           id="path5740"
           d="m 184.21,-187.18 q -1.9661,0 -1.9661,-1.9661 l 0,-4.2002 q -0.8043,1.2511 -2.1448,2.5023 -1.2511,1.2511 -3.1278,2.2342 -1.8767,0.98303 -4.4683,1.6086 -2.5916,0.71493 -6.0769,0.71493 -3.2172,0 -6.1663,-0.98303 -2.8597,-1.0724 -5.0939,-2.8597 -2.1448,-1.7873 -3.4853,-4.2002 -1.2511,-2.4129 -1.2511,-5.2726 0,-3.0385 1.2511,-5.4514 1.3405,-2.4129 3.664,-4.2002 2.3235,-1.8767 5.5407,-3.0385 3.3066,-1.2511 7.2387,-1.7873 l 14.12,-1.9661 0,-3.1278 q 0,-4.8258 -2.9491,-7.5068 -2.8597,-2.681 -9.2047,-2.681 -5.0045,0 -7.7749,1.9661 -2.681,1.8767 -3.3959,4.1108 -0.35746,1.0724 -0.89366,1.5192 -0.44683,0.35747 -1.2511,0.35747 l -1.2511,0 q -0.8043,0 -1.4299,-0.5362 -0.5362,-0.62557 -0.5362,-1.4299 0,-1.2511 0.89366,-3.1278 0.89367,-1.8767 2.8597,-3.664 2.0554,-1.7873 5.1832,-3.0385 3.1278,-1.3405 7.5961,-1.3405 5.2726,0 8.6685,1.4299 3.4853,1.4299 5.4514,3.7534 1.9661,2.2342 2.681,5.0045 0.8043,2.7704 0.8043,5.4514 l 0,29.759 q 0,1.9661 -1.9661,1.9661 l -1.5192,0 z m -16.89,-4.2896 q 3.0385,0 5.7194,-0.98303 2.7704,-1.0724 4.8258,-3.1278 2.0554,-2.0554 3.2172,-5.1832 1.1618,-3.1278 1.1618,-7.328 l 0,-3.0385 -11.528,1.6086 q -14.835,2.0554 -14.835,9.4728 0,2.2342 0.98303,3.8428 1.0724,1.6086 2.681,2.681 1.6086,1.0724 3.664,1.6086 2.0554,0.44683 4.1108,0.44683 z"
           inkscape:connector-curvature="0" />
        <path
           id="path5742"
           d="m 222.3,-186.29 q -5.6301,0 -9.2047,-2.0554 -3.5746,-2.0554 -5.8088,-5.0045 l 0,21.18 q 0,1.9661 -1.9661,1.9661 l -1.5192,0 q -1.9661,0 -1.9661,-1.9661 l 0,-59.518 q 0,-1.9661 1.9661,-1.9661 l 1.5192,0 q 1.9661,0 1.9661,1.9661 l 0,4.2002 q 2.2342,-3.0384 5.8088,-5.0045 3.5747,-2.0554 9.2047,-2.0554 5.1832,0 8.7579,1.8767 3.664,1.7873 5.8982,4.8258 2.2342,2.9491 3.2172,6.7918 1.0724,3.7534 1.2511,7.6855 0.0894,1.3405 0.0894,2.9491 0,1.6086 -0.0894,2.9491 -0.17874,3.9321 -1.2511,7.7749 -0.98303,3.7534 -3.2172,6.7918 -2.2342,2.9491 -5.8982,4.8258 -3.5746,1.7873 -8.7579,1.7873 z m -15.014,-27.346 q -0.0894,1.3405 -0.0894,3.4853 0,2.1448 0.0894,3.4853 0.0894,2.681 0.89366,5.4514 0.89366,2.681 2.681,4.8258 1.78734,2.1448 4.4683,3.5746 2.681,1.3405 6.4344,1.3405 3.9321,0 6.5238,-1.3405 2.681,-1.3405 4.2896,-3.5746 1.698,-2.3235 2.4129,-5.2726 0.80429,-3.0385 0.98303,-6.2556 0.0894,-2.5023 0,-5.0045 -0.17874,-3.2172 -0.98303,-6.1663 -0.71494,-2.9491 -2.4129,-5.1832 -1.6086,-2.3235 -4.2896,-3.664 -2.5916,-1.4299 -6.5238,-1.4299 -3.8428,0 -6.5238,1.4299 -2.681,1.4299 -4.4683,3.7534 -1.698,2.2342 -2.5916,5.0045 -0.8043,2.7704 -0.89366,5.5407 z"
           inkscape:connector-curvature="0" />
        <path
           id="path5744"
           d="m 259.12,-227.49 q 2.4129,-3.1278 5.8088,-5.0939 3.3959,-1.9661 9.2047,-1.9661 4.5577,0 7.9536,1.5192 3.3959,1.5192 5.6301,4.2002 2.3235,2.681 3.4853,6.345 1.1618,3.664 1.1618,7.9536 l 0,25.38 q 0,1.9661 -1.9661,1.9661 l -1.5192,0 q -1.9661,0 -1.9661,-1.9661 l 0,-24.933 q 0,-7.1493 -3.4853,-11.171 -3.4853,-4.1108 -10.188,-4.1108 -6.4344,0 -10.277,4.0215 -3.8428,4.0215 -3.8428,11.26 l 0,24.933 q 0,1.9661 -1.9661,1.9661 l -1.5192,0 q -1.9661,0 -1.9661,-1.9661 l 0,-59.518 q 0,-1.9661 1.9661,-1.9661 l 1.5192,0 q 1.9661,0 1.9661,1.9661 l 0,21.18 z"
           inkscape:connector-curvature="0" />
        <path
           id="path5746"
           d="m 328.81,-250.63 q 5.1832,0 9.4728,1.5192 4.2896,1.5192 7.328,4.647 3.1278,3.0385 4.8258,7.6855 1.7873,4.5577 1.9661,10.813 0.17874,4.0215 0.17874,7.5068 0,3.4853 -0.17874,7.5068 -0.44683,12.779 -6.5237,18.767 l 5.7194,8.043 q 0.0894,0.17873 0.17873,0.35747 0.0894,0.17873 0.0894,0.62556 0,0.71493 -0.5362,1.2511 -0.5362,0.5362 -1.2511,0.5362 l -1.9661,0 q -0.98303,0 -1.698,-0.8043 -0.71493,-0.71493 -1.1618,-1.2511 l -3.9321,-5.4514 q -5.362,2.5916 -12.511,2.5916 -11.171,0 -17.248,-5.9876 -5.9876,-5.9876 -6.345,-18.678 -0.17873,-4.0215 -0.17873,-7.5068 0,-3.4853 0.17873,-7.5068 0.17874,-6.2556 1.8767,-10.813 1.7873,-4.647 4.8258,-7.6855 3.1278,-3.1278 7.328,-4.647 4.2896,-1.5192 9.5622,-1.5192 z m 0,5.362 q -3.7534,0 -6.9706,1.1618 -3.2172,1.0724 -5.6301,3.4853 -2.4129,2.4129 -3.8428,6.1663 -1.3405,3.7534 -1.5192,8.9366 -0.0894,2.0554 -0.17873,3.7534 0,1.698 0,3.3066 0,1.6086 0,3.3959 0.0894,1.698 0.17873,3.664 0.17874,5.2726 1.5192,9.026 1.4299,3.664 3.7534,6.0769 2.4129,2.4129 5.6301,3.5747 3.2172,1.0724 7.06,1.0724 3.8428,0 7.0599,-1.0724 3.2172,-1.1618 5.5407,-3.5747 2.4129,-2.4129 3.7534,-6.0769 1.4299,-3.7534 1.6086,-9.026 0.0894,-1.9661 0.0894,-3.664 0,-1.7873 0,-3.3959 0,-1.6086 0,-3.3066 0,-1.698 -0.0894,-3.7534 -0.17873,-5.1832 -1.6086,-8.9366 -1.3405,-3.7534 -3.7534,-6.1663 -2.4129,-2.4129 -5.6301,-3.4853 -3.2172,-1.1618 -6.9706,-1.1618 z"
           inkscape:connector-curvature="0" />
        <path
           id="path5748"
           d="m 372.43,-192.55 30.831,0 q 2.0554,0 2.0554,2.0554 l 0,1.3405 q 0,1.9661 -2.0554,1.9661 l -34.495,0 q -1.9661,0 -1.9661,-1.9661 l 0,-58.624 q 0,-1.9661 1.9661,-1.9661 l 1.698,0 q 1.9661,0 1.9661,1.9661 l 0,55.228 z"
           inkscape:connector-curvature="0" />
      </g>
      <g
         style="fill:#e10098"
         id="g5464"
         transform="matrix(0.29747296,0,0,0.29747296,30.715389,46.803584)">
        <path
           id="path5444"
           d="m 57.468,302.66 -14.376,-8.3 160.15,-277.38 14.376,8.3 z"
           inkscape:connector-curvature="0" />
        <path
           id="path5446"
           d="m 39.8,272.2 320.3,0 0,16.6 -320.3,0 z"
           inkscape:connector-curvature="0" />
        <path
           id="path5448"
           d="m 206.35,374.03 -160.21,-92.5 8.3,-14.376 160.21,92.5 z m 139.17,-241.08 -160.21,-92.5 8.3,-14.376 160.21,92.5 z"
           inkscape:connector-curvature="0" />
        <path
           id="path5450"
           d="m 54.482,132.88 -8.3,-14.375 160.21,-92.5 8.3,14.376 z"
           inkscape:connector-curvature="0" />
        <path
           id="path5452"
           d="M 342.57,302.66 182.42,25.28 l 14.376,-8.3 160.15,277.38 z M 52.5,107.5 l 16.6,0 0,185 -16.6,0 z m 278.4,0 16.6,0 0,185 -16.6,0 z"
           inkscape:connector-curvature="0" />
        <path
           id="path5454"
           d="m 203.52,367 -7.25,-12.558 139.34,-80.45 7.25,12.557 z"
           inkscape:connector-curvature="0" />
        <path
           id="path5456"
           d="m 369.5,297.9 c -9.6,16.7 -31,22.4 -47.7,12.8 -16.7,-9.6 -22.4,-31 -12.8,-47.7 9.6,-16.7 31,-22.4 47.7,-12.8 16.8,9.7 22.5,31 12.8,47.7 M 90.9,137 c -9.6,16.7 -31,22.4 -47.7,12.8 -16.7,-9.6 -22.4,-31 -12.8,-47.7 9.6,-16.7 31,-22.4 47.7,-12.8 16.7,9.7 22.4,31 12.8,47.7 M 30.5,297.9 c -9.6,-16.7 -3.9,-38 12.8,-47.7 16.7,-9.6 38,-3.9 47.7,12.8 9.6,16.7 3.9,38 -12.8,47.7 -16.8,9.6 -38.1,3.9 -47.7,-12.8 M 309.1,137 c -9.6,-16.7 -3.9,-38 12.8,-47.7 16.7,-9.6 38,-3.9 47.7,12.8 9.6,16.7 3.9,38 -12.8,47.7 -16.7,9.6 -38.1,3.9 -47.7,-12.8 M 200,395.8 c -19.3,0 -34.9,-15.6 -34.9,-34.9 0,-19.3 15.6,-34.9 34.9,-34.9 19.3,0 34.9,15.6 34.9,34.9 0,19.2 -15.6,34.9 -34.9,34.9 M 200,74 c -19.3,0 -34.9,-15.6 -34.9,-34.9 0,-19.3 15.6,-34.9 34.9,-34.9 19.3,0 34.9,15.6 34.9,34.9 0,19.3 -15.6,34.9 -34.9,34.9"
           inkscape:connector-curvature="0" />
      </g>
    </g>
  </g>
</svg>
