<?xml version="1.0" encoding="UTF-8" standalone="no"?>
<!-- Created with Inkscape (http://www.inkscape.org/) -->

<svg
   xmlns:dc="http://purl.org/dc/elements/1.1/"
   xmlns:cc="http://creativecommons.org/ns#"
   xmlns:rdf="http://www.w3.org/1999/02/22-rdf-syntax-ns#"
   xmlns:svg="http://www.w3.org/2000/svg"
   xmlns="http://www.w3.org/2000/svg"
   xmlns:sodipodi="http://sodipodi.sourceforge.net/DTD/sodipodi-0.dtd"
   xmlns:inkscape="http://www.inkscape.org/namespaces/inkscape"
   inkscape:export-ydpi="90"
   inkscape:export-xdpi="90"
   inkscape:export-filename="C:\blogs\codenotfound\code\code-not-found\assets\images\apache-cxf-teaser.png"
   sodipodi:docname="apache-cxf-teaser.svg"
   viewBox="0 0 400 210"
   height="210"
   width="400"
   inkscape:version="0.91 r13725"
   version="1.1"
   id="svg2">
  <metadata
     id="metadata8">
    <rdf:RDF>
      <cc:Work
         rdf:about="">
        <dc:format>image/svg+xml</dc:format>
        <dc:type
           rdf:resource="http://purl.org/dc/dcmitype/StillImage" />
        <dc:title></dc:title>
      </cc:Work>
    </rdf:RDF>
  </metadata>
  <defs
     id="defs6" />
  <sodipodi:namedview
     inkscape:guide-bbox="true"
     showguides="true"
     inkscape:current-layer="svg2"
     inkscape:window-maximized="1"
     inkscape:window-y="-8"
     inkscape:window-x="1272"
     inkscape:cy="129.28916"
     inkscape:cx="106.03553"
     inkscape:zoom="2.682"
     showgrid="false"
     id="namedview4"
     inkscape:window-height="1018"
     inkscape:window-width="1920"
     inkscape:pageshadow="2"
     inkscape:pageopacity="1"
     guidetolerance="10"
     gridtolerance="10"
     objecttolerance="10"
     borderopacity="1"
     bordercolor="#666666"
     pagecolor="#e0e0e0">
    <sodipodi:guide
       position="200.37328,317.43347"
       orientation="1,0"
       id="guide8096" />
    <sodipodi:guide
       position="-140.56674,104.77256"
       orientation="0,1"
       id="guide8098" />
    <sodipodi:guide
       position="-107.38255,199.85086"
       orientation="0,1"
       id="guide3338" />
    <sodipodi:guide
       position="-63.012677,14.914243"
       orientation="0,1"
       id="guide3340" />
    <sodipodi:guide
       position="99.925429,187.17375"
       orientation="1,0"
       id="guide3342" />
    <sodipodi:guide
       position="350.11186,249.81357"
       orientation="1,0"
       id="guide3344" />
    <sodipodi:guide
       position="300.522,188.29232"
       orientation="1,0"
       id="guide3343" />
  </sodipodi:namedview>
  <path
     inkscape:connector-curvature="0"
     d="m 260.15569,89.970196 c -5.55926,-28.218994 -30.33065,-49.403708 -60.08903,-49.403708 -23.62684,0 -44.14705,13.414259 -54.36626,33.044866 -24.6079,2.617413 -43.73829,23.474942 -43.73829,48.749356 0,27.07388 21.99178,49.07654 49.05228,49.07654 l 106.27992,0 c 22.56404,0 40.87689,-18.32191 40.87689,-40.89711 0,-21.59368 -16.75952,-39.097636 -38.01551,-40.569944 z"
     id="path6"
     style="fill:#4caf50;fill-opacity:1" />
  <path
     inkscape:connector-curvature="0"
     d="m 184.90089,131.97636 c 0.52288,-0.71295 1.02183,-1.43924 1.47567,-2.2535 0.45385,-0.81426 0.80919,-1.62067 1.14057,-2.44045 l 7.25313,-1.13366 c 0.65503,-0.10549 1.13512,-0.68533 1.14154,-1.37245 l -0.16888,-10.95722 c 0.006,-0.68712 -0.5331,-1.2393 -1.16649,-1.34151 l -7.2951,-0.93048 c -0.71079,-1.65241 -1.61075,-3.19058 -2.73719,-4.60394 l 2.62769,-6.85389 c 0.24854,-0.614831 -0.0139,-1.32635 -0.61229,-1.660223 l -9.57474,-5.341938 c -0.59841,-0.333872 -1.34136,-0.183247 -1.73351,0.351449 l -4.44689,5.838917 c -1.79385,-0.215928 -3.58815,-0.149543 -5.35345,0.08998 l -4.62545,-5.720229 c -0.43042,-0.522706 -1.1729,-0.654376 -1.75381,-0.287769 l -9.40585,5.615276 c -0.60484,0.353258 -0.82162,1.079997 -0.56705,1.692967 l 2.84821,6.76941 c -0.5229,0.71294 -1.03519,1.46316 -1.47568,2.25348 -0.4405,0.79031 -0.80917,1.62068 -1.14058,2.44044 l -7.25312,1.13368 c -0.65503,0.10547 -1.1351,0.68531 -1.14153,1.37245 l 0.16888,10.9572 c -0.006,0.68713 0.53309,1.2393 1.16648,1.34151 l 7.29509,0.9305 c 0.71079,1.6524 1.61076,3.19057 2.7372,4.60393 l -2.62768,6.85388 c -0.24854,0.61485 0.0139,1.32637 0.61228,1.66024 l 9.57473,5.34194 c 0.59843,0.33386 1.34137,0.18325 1.73354,-0.35146 l 4.44687,-5.83892 c 1.79385,0.21594 3.58816,0.14955 5.35345,-0.09 l 4.62545,5.72023 c 0.43041,0.52271 1.1729,0.65438 1.75382,0.28776 l 9.40585,-5.61527 c 0.5809,-0.36661 0.82162,-1.08 0.56704,-1.69297 l -2.8482,-6.76939 z m -21.14884,-3.8876 c -4.6198,-2.57748 -6.28221,-8.43413 -3.70601,-13.05623 2.57622,-4.62208 8.42997,-6.28531 13.04978,-3.70783 4.61982,2.57749 6.28222,8.43413 3.706,13.05622 -2.57619,4.62211 -8.42995,6.28533 -13.04977,3.70784 z"
     id="path6-5"
     style="fill:#ffffff;fill-opacity:1" />
  <path
     inkscape:connector-curvature="0"
     d="m 219.44254,97.709808 c 0.0659,-0.527966 0.11544,-1.055912 0.11544,-1.616856 0,-0.560955 -0.0496,-1.088901 -0.11544,-1.616846 l 3.47947,-2.72225 c 0.31332,-0.247479 0.39576,-0.692931 0.19788,-1.055901 l -3.29808,-5.708473 c -0.19788,-0.362971 -0.64311,-0.494956 -1.0059,-0.362971 l -4.1061,1.649855 c -0.85749,-0.659942 -1.78094,-1.204392 -2.78686,-1.616856 l -0.62663,-4.372084 c -0.0496,-0.395979 -0.39577,-0.692952 -0.80803,-0.692952 l -6.59613,0 c -0.41225,0 -0.75854,0.296973 -0.80802,0.692952 l -0.62662,4.372084 c -1.00591,0.412455 -1.92937,0.973409 -2.78687,1.616856 l -4.1061,-1.649855 c -0.37927,-0.14848 -0.80802,0 -1.0059,0.362971 l -3.29808,5.708473 c -0.21436,0.36297 -0.11542,0.808422 0.19791,1.055901 l 3.47943,2.72225 c -0.0659,0.527945 -0.11541,1.072396 -0.11541,1.616846 0,0.54445 0.0496,1.08889 0.11541,1.616856 l -3.47943,2.722252 c -0.31333,0.24747 -0.39579,0.69293 -0.19791,1.0559 l 3.29808,5.70846 c 0.19788,0.36297 0.64311,0.49496 1.0059,0.36297 l 4.1061,-1.64985 c 0.8575,0.65995 1.78096,1.2044 2.78687,1.61685 l 0.62662,4.3721 c 0.0496,0.39596 0.39577,0.69294 0.80802,0.69294 l 6.59613,0 c 0.41226,0 0.75856,-0.29698 0.80803,-0.69294 l 0.62663,-4.3721 c 1.00592,-0.41245 1.92937,-0.9734 2.78686,-1.61685 l 4.1061,1.64985 c 0.37929,0.14849 0.80802,0 1.0059,-0.36297 l 3.29808,-5.70846 c 0.19788,-0.36297 0.11544,-0.80843 -0.19788,-1.0559 l -3.47947,-2.722252 z m -12.25231,4.157612 c -3.18263,0 -5.77162,-2.590261 -5.77162,-5.774468 0,-3.184208 2.58899,-5.774462 5.77162,-5.774462 3.18264,0 5.77161,2.590254 5.77161,5.774462 0,3.184207 -2.58897,5.774468 -5.77161,5.774468 z"
     id="path6-5-2"
     style="fill:#ffffff;fill-opacity:1" />
  <path
     inkscape:connector-curvature="0"
     d="m 219.01513,143.01265 c 0.0659,-0.52795 0.11544,-1.05591 0.11544,-1.61686 0,-0.56095 -0.0496,-1.0889 -0.11544,-1.61685 l 3.47946,-2.72224 c 0.31332,-0.24748 0.39576,-0.69295 0.19788,-1.0559 l -3.29806,-5.70847 c -0.19788,-0.36297 -0.64313,-0.49496 -1.00592,-0.36297 l -4.10609,1.64984 c -0.85749,-0.65994 -1.78094,-1.20439 -2.78685,-1.61686 l -0.62663,-4.37208 c -0.0496,-0.39597 -0.39577,-0.69294 -0.80804,-0.69294 l -6.59612,0 c -0.41226,0 -0.75856,0.29697 -0.80802,0.69294 l -0.62664,4.37208 c -1.00592,0.41247 -1.92937,0.97342 -2.78687,1.61686 l -4.10608,-1.64984 c -0.37929,-0.14848 -0.80803,0 -1.00592,0.36297 l -3.29805,5.70847 c -0.21438,0.36295 -0.11544,0.80842 0.19788,1.0559 l 3.47945,2.72224 c -0.0659,0.52795 -0.11542,1.07241 -0.11542,1.61685 0,0.54445 0.0496,1.08891 0.11542,1.61686 l -3.47945,2.72225 c -0.31332,0.24747 -0.39578,0.69294 -0.19788,1.0559 l 3.29805,5.70846 c 0.19789,0.36297 0.64314,0.49497 1.00592,0.36297 l 4.10608,-1.64985 c 0.8575,0.65996 1.78095,1.20439 2.78687,1.61686 l 0.62664,4.37209 c 0.0496,0.39597 0.39576,0.69294 0.80802,0.69294 l 6.59612,0 c 0.41227,0 0.75857,-0.29697 0.80804,-0.69294 l 0.62663,-4.37209 c 1.00591,-0.41247 1.92936,-0.97341 2.78685,-1.61686 l 4.10609,1.64985 c 0.37929,0.14848 0.80804,0 1.00592,-0.36297 l 3.29806,-5.70846 c 0.19788,-0.36296 0.11544,-0.80843 -0.19788,-1.0559 l -3.47946,-2.72225 z m -12.25231,4.15762 c -3.18263,0 -5.77161,-2.59027 -5.77161,-5.77448 0,-3.1842 2.58898,-5.77447 5.77161,-5.77447 3.18263,0 5.77161,2.59027 5.77161,5.77447 0,3.18421 -2.58898,5.77448 -5.77161,5.77448 z"
     id="path6-5-2-6"
     style="fill:#ffffff;fill-opacity:1" />
</svg>
