<?xml version="1.0" encoding="UTF-8" standalone="no"?>
<!-- Created with Inkscape (http://www.inkscape.org/) -->

<svg
   xmlns:dc="http://purl.org/dc/elements/1.1/"
   xmlns:cc="http://creativecommons.org/ns#"
   xmlns:rdf="http://www.w3.org/1999/02/22-rdf-syntax-ns#"
   xmlns:svg="http://www.w3.org/2000/svg"
   xmlns="http://www.w3.org/2000/svg"
   xmlns:sodipodi="http://sodipodi.sourceforge.net/DTD/sodipodi-0.dtd"
   xmlns:inkscape="http://www.inkscape.org/namespaces/inkscape"
   id="svg2"
   version="1.1"
   inkscape:version="0.91 r13725"
   width="500"
   height="300"
   viewBox="0 0 500 300"
   sodipodi:docname="spring-ws.svg"
   inkscape:export-filename="C:\code\st\code-not-found\assets\images\spring-ws.png"
   inkscape:export-xdpi="90"
   inkscape:export-ydpi="90">
  <metadata
     id="metadata8">
    <rdf:RDF>
      <cc:Work
         rdf:about="">
        <dc:format>image/svg+xml</dc:format>
        <dc:type
           rdf:resource="http://purl.org/dc/dcmitype/StillImage" />
        <dc:title></dc:title>
      </cc:Work>
    </rdf:RDF>
  </metadata>
  <defs
     id="defs6" />
  <sodipodi:namedview
     pagecolor="#e0e0e0"
     bordercolor="#666666"
     borderopacity="1"
     objecttolerance="10"
     gridtolerance="10"
     guidetolerance="10"
     inkscape:pageopacity="1"
     inkscape:pageshadow="2"
     inkscape:window-width="1920"
     inkscape:window-height="1018"
     id="namedview4"
     showgrid="false"
     inkscape:zoom="2.1214505"
     inkscape:cx="250"
     inkscape:cy="150.04947"
     inkscape:window-x="1272"
     inkscape:window-y="-8"
     inkscape:window-maximized="1"
     inkscape:current-layer="svg2"
     showguides="true"
     inkscape:guide-bbox="true">
    <sodipodi:guide
       position="48.409894,250.17668"
       orientation="0,1"
       id="guide4159" />
    <sodipodi:guide
       position="43.816254,49.823322"
       orientation="0,1"
       id="guide4161" />
    <sodipodi:guide
       position="250.17668,229.68198"
       orientation="1,0"
       id="guide4163" />
  </sodipodi:namedview>
  <path
     inkscape:connector-curvature="0"
     d="M 341.87499,125.43841 C 333.375,82.292082 295.5,49.901056 250,49.901056 c -36.12499,0 -67.50001,20.510152 -83.12498,50.524984 C 129.25,104.42802 100,136.31879 100,174.96291 100,216.35836 133.62501,250 175,250 l 162.5,0 c 34.5,0 62.5,-28.01385 62.5,-62.53091 0,-33.01633 -25.62499,-59.77956 -58.12501,-62.03068 z"
     id="path6"
     style="fill:#4caf50;fill-opacity:1" />
  <path
     inkscape:connector-curvature="0"
     d="m 226.81181,189.66503 c 0.79949,-1.09008 1.56237,-2.20056 2.25629,-3.44554 0.69393,-1.24498 1.23722,-2.47799 1.7439,-3.73141 l 11.08991,-1.73334 c 1.00151,-0.16129 1.73556,-1.04786 1.74538,-2.09846 l -0.25821,-16.75337 c 0.01,-1.05061 -0.81509,-1.89487 -1.78353,-2.05115 l -11.15408,-1.42269 c -1.08678,-2.5265 -2.46281,-4.87834 -4.18511,-7.03934 l 4.01768,-10.47947 c 0.38002,-0.94006 -0.0213,-2.02796 -0.93617,-2.53845 l -14.63959,-8.16772 c -0.91496,-0.51049 -2.05091,-0.28018 -2.65052,0.53736 l -6.79921,8.9276 c -2.74276,-0.33016 -5.48622,-0.22865 -8.18533,0.13762 l -7.07222,-8.74612 c -0.6581,-0.79921 -1.79334,-1.00054 -2.68155,-0.44 l -14.38136,8.58565 c -0.92479,0.54012 -1.25624,1.6513 -0.867,2.58852 l 4.35485,10.35029 c -0.79948,1.09007 -1.58278,2.23717 -2.25628,3.44554 -0.67351,1.20835 -1.23721,2.47797 -1.74392,3.7314 l -11.08989,1.73336 c -1.00153,0.16127 -1.73556,1.04783 -1.74537,2.09845 l 0.25819,16.75336 c -0.01,1.0506 0.81509,1.89486 1.78355,2.05114 l 11.15405,1.42271 c 1.08678,2.52649 2.46282,4.87834 4.18512,7.03933 l -4.01766,10.47946 c -0.38003,0.94007 0.0213,2.02798 0.93615,2.53846 l 14.63959,8.16772 c 0.91498,0.51049 2.05092,0.2802 2.65054,-0.53737 l 6.79919,-8.92759 c 2.74277,0.33016 5.48623,0.22866 8.18533,-0.13762 l 7.07223,8.74612 c 0.65809,0.79921 1.79334,1.00054 2.68153,0.44001 l 14.38138,-8.58565 c 0.88819,-0.56055 1.25625,-1.65131 0.867,-2.58852 l -4.35486,-10.35029 z m -32.33616,-5.94405 c -7.06359,-3.94092 -9.6054,-12.89563 -5.66641,-19.96272 3.93898,-7.0671 12.88925,-9.61014 19.95286,-5.66921 7.0636,3.94092 9.60538,12.89562 5.66641,19.96272 -3.93897,7.0671 -12.88925,9.61015 -19.95286,5.66921 z"
     id="path6-5"
     style="fill:#ffffff;fill-opacity:1" />
  <path
     inkscape:connector-curvature="0"
     d="m 279.62536,137.27212 c 0.10085,-0.80724 0.17649,-1.61446 0.17649,-2.47214 0,-0.85768 -0.0757,-1.66491 -0.17649,-2.47213 l 5.32003,-4.16226 c 0.47905,-0.37839 0.60512,-1.05949 0.30256,-1.61446 l -5.04269,-8.72815 c -0.30256,-0.55497 -0.98331,-0.75677 -1.53801,-0.55497 l -6.27814,2.5226 c -1.31109,-1.00905 -2.72304,-1.8415 -4.26106,-2.47214 l -0.9581,-6.68485 c -0.0757,-0.60543 -0.60513,-1.0595 -1.23547,-1.0595 l -10.08535,0 c -0.63033,0 -1.15981,0.45407 -1.23545,1.0595 l -0.9581,6.68484 c -1.53802,0.63064 -2.94997,1.48832 -4.26108,2.47215 l -6.27813,-2.5226 c -0.57991,-0.22703 -1.23545,0 -1.53801,0.55497 l -5.04269,8.72815 c -0.32777,0.55497 -0.1765,1.23607 0.30258,1.61446 l 5.32,4.16226 c -0.10085,0.80722 -0.17648,1.63968 -0.17648,2.47213 0,0.83245 0.0757,1.6649 0.17648,2.47214 l -5.32,4.16227 c -0.47908,0.37838 -0.60514,1.05948 -0.30258,1.61446 l 5.04269,8.72813 c 0.30256,0.55497 0.98331,0.75678 1.53801,0.55497 l 6.27813,-2.52259 c 1.31111,1.00905 2.72306,1.8415 4.26108,2.47214 l 0.9581,6.68485 c 0.0757,0.60543 0.60512,1.0595 1.23545,1.0595 l 10.08535,0 c 0.63034,0 1.15982,-0.45407 1.23547,-1.0595 l 0.9581,-6.68485 c 1.53802,-0.63064 2.94997,-1.48832 4.26106,-2.47214 l 6.27814,2.52259 c 0.57992,0.22704 1.23545,0 1.53801,-0.55497 l 5.04269,-8.72813 c 0.30256,-0.55498 0.17649,-1.23608 -0.30256,-1.61446 l -5.32003,-4.16227 z m -18.73355,6.35692 c -4.86619,0 -8.8247,-3.96047 -8.8247,-8.82906 0,-4.86859 3.95851,-8.82904 8.8247,-8.82904 4.86619,0 8.82468,3.96045 8.82468,8.82904 0,4.86859 -3.95849,8.82906 -8.82468,8.82906 z"
     id="path6-5-2"
     style="fill:#ffffff;fill-opacity:1" />
  <path
     inkscape:connector-curvature="0"
     d="m 278.97185,206.53931 c 0.10085,-0.80722 0.17651,-1.61445 0.17651,-2.47212 0,-0.8577 -0.0757,-1.66491 -0.17651,-2.47214 l 5.32004,-4.16227 c 0.47904,-0.37839 0.60511,-1.05949 0.30256,-1.61445 l -5.04269,-8.72815 c -0.30256,-0.55496 -0.98333,-0.75678 -1.53801,-0.55496 l -6.27815,2.52258 c -1.31108,-1.00905 -2.72303,-1.8415 -4.26105,-2.47214 l -0.95811,-6.68485 c -0.0757,-0.60543 -0.60512,-1.05949 -1.23545,-1.05949 l -10.08537,0 c -0.63032,0 -1.15981,0.45406 -1.23544,1.05949 l -0.95812,6.68485 c -1.53802,0.63064 -2.94996,1.48833 -4.26106,2.47214 l -6.27814,-2.52258 c -0.57991,-0.22704 -1.23545,0 -1.53801,0.55496 l -5.04268,8.72815 c -0.32777,0.55496 -0.17649,1.23606 0.30257,1.61445 l 5.32002,4.16227 c -0.10086,0.80723 -0.1765,1.63968 -0.1765,2.47214 0,0.83245 0.0757,1.6649 0.1765,2.47212 l -5.32002,4.16227 c -0.47906,0.37839 -0.60513,1.05949 -0.30257,1.61446 l 5.04268,8.72815 c 0.30256,0.55496 0.98332,0.75677 1.53801,0.55496 l 6.27814,-2.52259 c 1.3111,1.00905 2.72304,1.8415 4.26106,2.47214 l 0.95812,6.68485 c 0.0757,0.60543 0.60512,1.05949 1.23544,1.05949 l 10.08537,0 c 0.63033,0 1.15981,-0.45406 1.23545,-1.05949 l 0.95811,-6.68485 c 1.53802,-0.63064 2.94997,-1.48832 4.26105,-2.47214 l 6.27815,2.52259 c 0.57991,0.22703 1.23545,0 1.53801,-0.55496 l 5.04269,-8.72815 c 0.30255,-0.55497 0.17648,-1.23607 -0.30256,-1.61446 l -5.32004,-4.16227 z m -18.73354,6.35693 c -4.86618,0 -8.82469,-3.96046 -8.82469,-8.82905 0,-4.8686 3.95851,-8.82906 8.82469,-8.82906 4.86618,0 8.82467,3.96046 8.82467,8.82906 0,4.86859 -3.95849,8.82905 -8.82467,8.82905 z"
     id="path6-5-2-6"
     style="fill:#ffffff;fill-opacity:1" />
</svg>
